<svg width="31" height="31" viewBox="0 0 31 31" fill="none" xmlns="http://www.w3.org/2000/svg">
<path d="M23.0322 7.42294C15.8042 0.213378 6.77421 -2.07956 2.48759 2.20838C-1.79904 6.49632 0.492588 15.5263 7.72053 22.7359C12.481 27.4963 18.0276 30.1213 22.4901 30.1213C24.783 30.1213 26.7951 29.4218 28.2651 27.9688C32.5347 23.6809 30.243 14.6509 23.0322 7.42425V7.42294ZM3.93921 3.66C4.97215 2.62706 6.45921 2.1375 8.20878 2.1375C9.50421 2.1375 10.9558 2.43544 12.4613 2.96044L3.23834 12.1834C1.9954 8.64882 2.11877 5.46338 3.9379 3.66131L3.93921 3.66ZM4.16759 14.4054L14.6846 3.88838L14.6492 3.85294C16.9946 5.00794 19.3913 6.705 21.5792 8.87588C23.5388 10.8354 25.1138 12.9879 26.2517 15.1063L26.2346 15.0893L15.3672 25.9568C13.2501 24.8188 11.1146 23.2438 9.15509 21.3013C7.00259 19.1318 5.32259 16.7509 4.16759 14.4068V14.4054ZM26.7951 26.5146C24.8526 28.4571 21.3351 28.4741 17.538 26.9516L27.2505 17.2562C28.756 21.0716 28.7376 24.5708 26.7951 26.5133V26.5146Z" fill="white"/>
</svg>
