<svg width="42" height="40" viewBox="0 0 42 40" fill="none" xmlns="http://www.w3.org/2000/svg">
<path d="M42 10.025C42 11.075 41.5406 12.0922 40.7531 12.8469L35.6016 17.6375C34.3875 15.7344 32.1562 14.4875 29.6297 14.4875C25.7578 14.4875 22.6406 17.4078 22.6406 21.0172C22.6406 23.3797 24.0188 25.4469 26.0203 26.5953L19.7203 32.4687C19.425 32.7641 18.9656 32.8297 18.5719 32.6984L14.9297 31.3203L6.98906 38.7031C6.39844 39.2609 5.57812 39.5891 4.725 39.5891C3.87187 39.5891 3.05156 39.2937 2.46094 38.7031L0.951563 37.2922C0.328125 36.7344 0 35.9797 0 35.1594C0 34.3719 0.328125 33.6172 0.951563 33.0266L8.85938 25.6766L7.38281 22.2641C7.21875 21.9031 7.31719 21.4766 7.6125 21.1812L28.6453 1.55937C30.2531 0.0499939 33.075 0.0499939 34.6828 1.55937L40.7531 7.20312C41.5406 7.95781 42 8.94218 42 10.025ZM29.6297 16.4891C26.9719 16.4891 24.7734 18.5234 24.7734 21.0172C24.7734 23.5109 26.9391 25.5453 29.6297 25.5453C32.2875 25.5453 34.4859 23.5109 34.4859 21.0172C34.4531 18.5234 32.2875 16.4891 29.6297 16.4891Z" fill="white"/>
</svg>
