<svg width="32" height="29" viewBox="0 0 32 29" fill="none" xmlns="http://www.w3.org/2000/svg">
<path d="M29.6889 0.827393L5.8185 24.7674C5.661 24.942 5.46806 25.1178 5.25806 25.2753C4.99556 24.6624 4.52306 23.3499 4.17262 21.0583C4.06762 20.3587 3.78806 18.5028 2.44012 18.2758C1.19718 18.0658 0.392621 19.4308 0.182621 19.8508L0.077621 20.0437L0.0605585 20.2708C-0.219004 24.8383 0.463496 27.3228 2.23012 28.0933C2.58056 28.2508 2.94806 28.3203 3.29718 28.3203C5.20425 28.3203 7.06012 26.4474 7.28718 26.2033L31.1222 2.28033L29.6876 0.827393H29.6889ZM3.05437 26.2203C2.84437 26.1324 1.86393 25.4683 2.07393 20.9533C2.091 21.0753 2.12643 21.2158 2.1435 21.3903C2.54643 24.0153 3.0885 25.5208 3.43893 26.2728C3.2985 26.2728 3.15937 26.2558 3.05437 26.2203ZM6.78187 17.9595C8.09437 17.9595 9.17981 16.8924 9.17981 15.5615C9.17981 14.2306 8.11275 13.1636 6.78187 13.1636C5.451 13.1636 4.38393 14.249 4.38393 15.5615C4.38393 16.874 5.46937 17.9595 6.78187 17.9595ZM6.78187 15.2124C6.97481 15.2124 7.13231 15.3699 7.13231 15.5628C7.13231 15.9474 6.43275 15.9474 6.43275 15.5628C6.43275 15.3699 6.59025 15.2124 6.78318 15.2124H6.78187Z" fill="white"/>
</svg>
