<svg width="39" height="33" viewBox="0 0 39 33" fill="none" xmlns="http://www.w3.org/2000/svg">
<path d="M2.77723 9.71958V12.8525C2.77723 14.6546 5.61223 15.4605 8.4118 15.4605C11.2297 15.4605 14.0647 14.6559 14.0647 12.7475V9.44002H14.0122C13.7497 7.32296 9.32267 7.19958 8.39473 7.19958C7.48517 7.19958 3.0568 7.32165 2.7943 9.42165H2.77723V9.52665C2.77723 9.56208 2.76017 9.59621 2.76017 9.61458C2.76017 9.65002 2.77723 9.68415 2.77723 9.71958ZM12.0172 12.6596C11.6852 12.9391 10.3897 13.3946 8.4118 13.3946C6.45223 13.3946 5.1568 12.9391 4.82473 12.6766V11.5912C6.2068 12.0112 7.8868 12.0466 8.39473 12.0466C8.91973 12.0466 10.6168 12.0112 12.0172 11.5741V12.6596ZM8.39473 9.24708C9.74267 9.24708 10.7572 9.42165 11.3872 9.61458C10.7743 9.82458 9.74267 9.99915 8.39473 9.99915C7.0468 9.99915 6.03223 9.82458 5.40223 9.63165C6.03223 9.43871 7.06517 9.24708 8.39473 9.24708ZM33.9452 0.970459L26.3156 21.9875L12.5606 19.6421L3.72355 19.6775C2.62105 19.6775 1.58811 20.238 0.976483 21.1646C0.364858 22.0912 0.258546 23.2475 0.696921 24.2621L3.30486 30.3521C3.93486 31.8221 5.3878 32.7671 6.97986 32.7671L25.4953 32.75C26.9482 32.75 28.2082 31.8221 28.6282 30.44L29.2937 28.323L38.6032 2.6859L33.9478 0.970459H33.9452ZM27.3643 27.6746L26.6818 29.8271C26.5243 30.3521 26.0347 30.7025 25.4914 30.7025L6.9943 30.738C6.2068 30.738 5.50723 30.2655 5.19223 29.5475L2.5843 23.4575C2.40973 23.073 2.46223 22.6346 2.6893 22.2855C2.91636 21.9363 3.30223 21.725 3.72223 21.725L12.3847 21.6896L27.6622 24.2975L35.1697 3.59546L35.9927 3.8934L27.3656 27.6759L27.3643 27.6746Z" fill="white"/>
</svg>
