<svg width="37" height="37" viewBox="0 0 37 37" fill="none" xmlns="http://www.w3.org/2000/svg">
<path d="M36.8666 35.4496L32.9462 31.5292C37.0241 26.9617 33.5066 22.9717 31.7557 20.9937L31.5628 20.7837C29.9524 18.9633 28.6753 16.3908 28.4299 15.8842C26.2078 6.38168 23.6878 1.48212 20.7649 0.92168C19.2594 0.642117 18.1228 1.56874 17.6319 2.21712L9.79237 9.93462L2.14443 17.6876C1.49737 18.1771 0.569431 19.3321 0.848994 20.8205C1.40943 23.7434 6.29193 26.2451 15.8115 28.4855C16.3194 28.7309 18.8919 30.0251 20.7111 31.6184L20.9211 31.793C21.5865 32.3705 22.4606 33.158 23.5106 33.788L23.5277 33.8051C24.5606 34.418 25.7681 34.9076 27.0622 34.9076C28.4272 34.9076 29.8972 34.3996 31.4552 33.0005L35.3756 36.9209L36.8627 35.4509L36.8666 35.4496ZM28.9746 27.5746L31.4591 25.0901L32.5971 26.228L32.6496 26.1755C32.9646 27.4001 32.7021 28.6601 31.4946 30.0959L28.9746 27.5759V27.5746ZM12.1746 19.4726L15.045 16.6021L18.2475 19.8046L15.3771 22.6751L12.1746 19.4726ZM13.89 24.1621L12.525 25.5271C10.5471 24.9667 8.97206 24.4246 7.73043 23.9167L10.6875 20.9596L13.89 24.1621ZM19.0166 12.6305L22.2191 15.833L19.7346 18.3176L16.5321 15.1151L19.0166 12.6305ZM15.0621 13.6451L12.0341 10.6171L14.5371 8.14962L17.5466 11.1592L15.0621 13.6437V13.6451ZM26.4546 16.463L26.5241 16.6559C26.5412 16.7084 26.7696 17.1639 27.1187 17.8109L25.1237 15.8159L26.0687 14.8709C26.1907 15.3959 26.3312 15.9039 26.4532 16.463H26.4546ZM26.4716 20.0855L23.9871 22.5701L21.1875 19.7705L23.6721 17.2859L26.4716 20.0855ZM23.6721 14.3801L20.4696 11.1776L23.8466 7.80049C24.3546 9.06049 24.8966 10.6184 25.4571 12.5951L23.6721 14.3801ZM19.6991 21.2405L22.4987 24.0401L19.6282 26.9105L16.8287 24.1109L19.6991 21.2405ZM21.0825 28.3621L23.9529 25.4917L26.0529 27.5917L23.1825 30.4621L21.0825 28.3621ZM25.44 24.023L27.9246 21.5384L30.0246 23.6384L27.54 26.123L25.44 24.023ZM19.1216 3.61755L19.2437 3.47712C19.2437 3.47712 19.6466 2.93505 20.2057 2.93505C20.2582 2.93505 20.3107 2.93505 20.3632 2.95212C20.7662 3.02168 21.7807 3.51255 23.0762 6.11918L22.8491 5.85668L18.9996 9.70624L16.0071 6.71374L19.1216 3.61624V3.61755ZM10.5471 12.0871L13.575 15.1151L10.7046 17.9855L7.69499 14.9759L10.5471 12.0884V12.0871ZM2.88206 20.453C2.74162 19.8059 3.38999 19.3151 3.40706 19.3151L6.18956 16.4971L9.19912 19.5067L5.69868 23.0071C3.42412 21.7826 2.95162 20.8376 2.88074 20.4517L2.88206 20.453ZM14.8166 26.1401L15.3246 25.6321L16.1816 26.4892C15.7091 26.3487 15.2537 26.2437 14.8166 26.1387V26.1401ZM25.0016 32.2826L24.6341 31.9151L27.5046 29.0446L30.0246 31.5646C28.17 33.1567 26.5596 33.1042 25.0016 32.2826Z" fill="white"/>
</svg>
