<svg width="42" height="40" viewBox="0 0 42 40" fill="none" xmlns="http://www.w3.org/2000/svg">
<path d="M38.85 7.36709C38.9813 7.36709 39.0797 7.36709 39.2109 7.36709C40.8516 7.36709 42.1641 8.67959 42.1641 10.3202C42.1641 15.4062 42.1641 22.1983 42.1641 26.989C42.1641 27.5796 42.1641 28.203 42.1641 28.7937C42.1641 31.714 42.1641 34.2077 42.1641 37.0296C42.1641 38.6702 40.8187 39.9827 39.2109 39.9827C33.1078 39.9827 27.9891 39.9827 21.8859 39.9827C20.2453 39.9827 18.9328 38.6374 18.9328 37.0296V35.4218C18.9328 33.7812 20.2781 32.4687 21.8859 32.4687H36.2906C37.6688 32.4687 38.9813 31.1233 38.9813 29.2858C38.9813 22.6577 38.85 13.9952 38.85 7.36709ZM1.93594 3.92178H9.28594V3.69209C9.28594 2.70772 10.0734 1.92021 11.0578 1.92021H18.2109V1.78896C18.2109 0.80459 18.9984 0.0170898 19.9828 0.0170898H26.9062C27.8906 0.0170898 28.6781 0.80459 28.6781 1.78896V1.92021H35.2078C36.5203 1.92021 37.6031 3.00303 37.6031 4.31553V28.0718C37.6031 29.3843 36.5203 30.4671 35.175 30.4671C33.9281 30.4671 32.8781 30.4671 31.5984 30.4671C30.2859 30.4671 29.1703 29.3843 29.1703 28.0718V9.63115C28.4813 9.66397 27.3656 9.95928 27.3984 11.0749C27.3984 15.3733 27.3984 23.4452 27.3984 28.1046C27.3984 29.4171 26.3156 30.4999 24.9703 30.4999C23.6906 30.4999 22.5094 30.4999 21.2297 30.4999C19.9172 30.4999 18.8016 29.4171 18.8016 28.1046V9.95928C18.1125 9.99209 17.1938 10.2874 17.2266 11.403C17.2266 15.7015 17.2266 23.478 17.2266 28.1046C17.2266 29.4171 16.1437 30.4999 14.7984 30.4999C13.6172 30.4999 12.7641 30.4999 11.5828 30.4999C10.2703 30.4999 9.15469 29.4171 9.15469 28.1046V12.9452C8.46562 12.978 7.57969 13.2733 7.64531 14.389V28.1046C7.64531 29.4171 6.5625 30.4999 5.21719 30.4999C4.13438 30.4999 3.54375 30.4999 2.42813 30.4999C1.11563 30.4999 0 29.4171 0 28.1046C0 21.1483 0 12.5843 0 5.72646C0.164062 4.70928 0.951563 3.92178 1.93594 3.92178Z" fill="white"/>
</svg>
