<svg width="42" height="38" viewBox="0 0 42 38" fill="none" xmlns="http://www.w3.org/2000/svg">
<path d="M41.9672 27.4983L40.8844 26.9077L40.8516 26.8749L40.9828 16.7687C40.9828 16.3093 40.8516 15.8171 40.5891 15.4233L34.4203 6.20303C33.9938 5.57959 33.3047 5.21865 32.5828 5.18584C31.8281 5.15303 31.1391 5.48115 30.6797 6.07178L22.7719 16.0468H22.7391L21.5578 16.0796H21.525L16.5375 10.1733C15.8156 9.32021 14.5688 9.09053 13.5844 9.64834L4.85625 14.6687C4.85625 14.6687 4.82344 14.6687 4.82344 14.7015C4.79063 14.7343 4.725 14.7671 4.69219 14.7999C4.65938 14.7999 4.65938 14.8327 4.62656 14.8327C4.59375 14.8655 4.56094 14.8983 4.49531 14.9312L4.4625 14.964C4.42969 14.9968 4.36406 15.0624 4.33125 15.0952C4.29844 15.128 4.29844 15.128 4.26562 15.1608C4.23281 15.1937 4.23281 15.2265 4.2 15.2593C4.16719 15.2921 4.16719 15.2921 4.13438 15.3249C4.10156 15.3577 4.06875 15.4233 4.06875 15.4562C4.06875 15.489 4.03594 15.489 4.03594 15.5218C4.00313 15.5874 3.97031 15.6202 3.9375 15.6858C3.9375 15.6858 3.9375 15.7187 3.90469 15.7187C3.87187 15.7515 3.87188 15.8171 3.83906 15.8499C3.83906 15.8827 3.83906 15.8827 3.80625 15.9155C3.80625 15.9483 3.77344 15.9812 3.77344 16.0468C3.77344 16.0796 3.74062 16.1124 3.74062 16.1452C3.74062 16.2108 3.70781 16.2437 3.70781 16.3093C3.70781 16.3421 3.70781 16.3421 3.70781 16.3749C3.70781 16.4405 3.675 16.5062 3.675 16.5718C3.675 16.6046 3.675 16.6046 3.675 16.6374C3.675 16.6702 3.675 16.703 3.675 16.7358V27.4327C3.675 27.4655 3.675 27.4655 3.64219 27.4655L0.0328125 29.139L0 29.1718V33.2733C0 33.2733 0 33.2733 0 33.3062C0.0984375 33.4702 0.164062 33.6671 0.164062 33.864C0.164062 33.9952 0.164062 34.0937 0.164062 34.1921C0.164062 34.1921 0.164062 34.1921 0.196875 34.2249L6.95625 31.0749C7.77656 30.6812 8.30156 29.8608 8.30156 28.9421V23.3312C8.30156 23.2983 8.36719 23.2655 8.36719 23.2983L20.0156 37.3421C20.1469 37.3421 22.8703 37.3093 23.7891 37.3093C23.7891 37.3093 23.8219 37.3093 23.8219 37.2765C24.4125 36.4562 24.3797 35.2749 23.7234 34.4546L9.58125 17.3593C9.54844 17.3265 9.58125 17.2937 9.58125 17.2937L14.175 14.6687C14.2078 14.6687 14.2078 14.6687 14.2406 14.6687L18.7031 19.9843C19.1625 20.5093 19.7859 20.8046 20.475 20.8046C20.5078 20.8046 20.5406 20.8046 20.5734 20.8046L21.4922 20.7718H21.525C21.5906 20.8702 21.6891 20.9358 21.7875 21.0343C22.8047 21.8218 24.2484 21.6577 25.0688 20.6405L25.1016 20.6077L26.1187 20.5749C27.3656 20.5093 28.4156 19.5577 28.4484 18.3437C28.4812 17.8187 28.3172 17.3265 28.0219 16.9327V16.8999L32.2875 11.4858C32.3203 11.453 32.3531 11.453 32.3531 11.4858L35.1094 15.5546C35.1094 15.5874 35.1094 15.5874 35.1094 15.6202L27.6938 22.1499C27.2016 22.5765 26.9062 23.2327 26.9062 23.889V36.4562C26.9062 36.7515 26.9719 37.014 27.0375 37.2765C27.0375 37.3093 27.0703 37.3093 27.0703 37.3093C28.5141 37.3093 29.925 37.3093 31.3687 37.2765C31.4016 37.2765 31.4016 37.2765 31.4016 37.2437C31.5 36.9812 31.5328 36.7187 31.5328 36.4562V24.939V24.9062L36.1922 20.8046C36.225 20.7718 36.2578 20.8046 36.2578 20.8374L36.1594 28.1874C36.1594 29.0733 36.6188 29.8937 37.4062 30.2874L41.9016 32.7483C41.9344 32.7155 41.9344 32.7155 41.9672 32.7155V27.4983C42 27.5312 42 27.4983 41.9672 27.4983ZM20.8031 12.1421C22.2469 12.0437 23.3953 10.8952 23.4937 9.45147C23.5922 7.77803 22.2797 6.3999 20.6391 6.3999C19.0641 6.3999 17.7516 7.67959 17.7516 9.25459C17.7516 10.928 19.1297 12.2405 20.8031 12.1421ZM27.8578 6.3999C29.3016 6.30147 30.45 5.15303 30.5484 3.70928C30.6469 2.03584 29.3344 0.657715 27.6938 0.657715C26.1187 0.657715 24.8062 1.9374 24.8062 3.5124C24.7734 5.15303 26.1844 6.49834 27.8578 6.3999Z" fill="white"/>
</svg>
