<svg width="25" height="25" viewBox="0 0 25 25" fill="none" xmlns="http://www.w3.org/2000/svg">
<path d="M6.25 4.70391V2.34375C6.25 1.05156 5.19844 0 3.90625 0C2.61406 0 1.5625 1.05156 1.5625 2.34375V4.70391C0.61875 5.41875 0 6.53828 0 7.8125C0 9.08672 0.61875 10.2063 1.5625 10.9195V22.6562C1.5625 23.9484 2.61406 25 3.90625 25C5.19844 25 6.25 23.9484 6.25 22.6562V10.9195C7.19375 10.207 7.8125 9.08672 7.8125 7.8125C7.8125 6.53828 7.19375 5.41875 6.25 4.70391ZM3.125 2.34375C3.125 1.91172 3.47422 1.5625 3.90625 1.5625C4.33828 1.5625 4.6875 1.91172 4.6875 2.34375V3.98438C4.43516 3.93359 4.17422 3.90625 3.90625 3.90625C3.63828 3.90625 3.37734 3.93359 3.125 3.98438V2.34375ZM4.6875 22.6562C4.6875 23.0883 4.33828 23.4375 3.90625 23.4375C3.47422 23.4375 3.125 23.0883 3.125 22.6562V11.6391C3.37734 11.6914 3.63828 11.7188 3.90625 11.7188C4.17422 11.7188 4.43516 11.6914 4.6875 11.6391V22.6562ZM6.14453 8.46875C6.13203 8.51016 6.12109 8.55078 6.10625 8.59219C6.03203 8.79844 5.93672 8.99375 5.81094 9.16719C5.80781 9.17188 5.80312 9.175 5.8 9.17969C5.66406 9.36563 5.50234 9.53047 5.31875 9.66953C5.31563 9.67266 5.31328 9.67422 5.31094 9.67578C5.12266 9.81797 4.9125 9.93203 4.68672 10.0117C4.44219 10.1 4.18203 10.1562 3.90625 10.1562C3.63047 10.1562 3.37031 10.1 3.125 10.0109C2.89922 9.93125 2.68906 9.81719 2.50078 9.675C2.49844 9.67344 2.49609 9.67188 2.49297 9.66875C2.30938 9.52969 2.14766 9.36484 2.01172 9.17891C2.00859 9.17422 2.00391 9.17109 2.00078 9.16641C1.875 8.99219 1.77969 8.79688 1.70547 8.59141C1.69063 8.55 1.67969 8.50937 1.66719 8.46797C1.60547 8.25937 1.5625 8.04141 1.5625 7.8125C1.5625 7.58203 1.60547 7.36406 1.66797 7.15469C1.68047 7.11328 1.69141 7.07266 1.70625 7.03281C1.77969 6.82656 1.875 6.63125 2.00156 6.45625C2.00469 6.45156 2.00938 6.44844 2.0125 6.44375C2.14844 6.25938 2.31016 6.09297 2.49375 5.95391C2.49688 5.95234 2.49922 5.94922 2.50156 5.94766C2.68906 5.80781 2.89922 5.69297 3.125 5.6125C3.37031 5.525 3.63047 5.46875 3.90625 5.46875C4.18203 5.46875 4.44219 5.525 4.6875 5.6125C4.91328 5.69375 5.12344 5.80781 5.31172 5.94844C5.31406 5.95 5.31641 5.95312 5.31953 5.95469C5.50313 6.09375 5.66484 6.26016 5.80078 6.44453C5.80391 6.44922 5.80859 6.45234 5.81172 6.45703C5.9375 6.63125 6.03281 6.82656 6.10625 7.03281C6.12109 7.07266 6.13281 7.11328 6.14453 7.15469C6.20703 7.36406 6.25 7.58203 6.25 7.8125C6.25 8.04141 6.20703 8.25938 6.14453 8.46875ZM23.4375 4.70391V2.34375C23.4375 1.05156 22.3859 0 21.0938 0C19.8016 0 18.75 1.05156 18.75 2.34375V4.70391C17.8055 5.41875 17.1875 6.53828 17.1875 7.8125C17.1875 9.08672 17.8055 10.2063 18.75 10.9195V22.6562C18.75 23.9484 19.8016 25 21.0938 25C22.3859 25 23.4375 23.9484 23.4375 22.6562V10.9195C24.3805 10.207 25 9.08672 25 7.8125C25 6.53828 24.3805 5.41875 23.4375 4.70391ZM20.3125 2.34375C20.3125 1.91172 20.6617 1.5625 21.0938 1.5625C21.5258 1.5625 21.875 1.91172 21.875 2.34375V3.98438C21.6219 3.93359 21.3609 3.90625 21.0938 3.90625C20.825 3.90625 20.5641 3.93359 20.3125 3.98438V2.34375ZM21.875 22.6562C21.875 23.0883 21.5258 23.4375 21.0938 23.4375C20.6617 23.4375 20.3125 23.0883 20.3125 22.6562V11.6391C20.5641 11.6914 20.825 11.7188 21.0938 11.7188C21.3609 11.7188 21.6219 11.6914 21.875 11.6391V22.6562ZM23.332 8.46875C23.3195 8.51016 23.3078 8.55078 23.2938 8.59219C23.2188 8.79844 23.1242 8.99375 22.9977 9.16719C22.9945 9.17188 22.9898 9.175 22.9867 9.17969C22.8508 9.36563 22.6891 9.53047 22.5063 9.66953C22.5031 9.67266 22.5 9.67422 22.4984 9.67578C22.3094 9.81797 22.1 9.93203 21.8742 10.0117C21.6297 10.1 21.3687 10.1562 21.0938 10.1562C20.8172 10.1562 20.5578 10.1 20.3125 10.0109C20.0867 9.93125 19.8758 9.81719 19.6883 9.675C19.6852 9.67344 19.6836 9.67188 19.6805 9.66875C19.4961 9.52969 19.3344 9.36484 19.1984 9.17891C19.1953 9.17422 19.1906 9.17109 19.1875 9.16641C19.0625 8.99219 18.9664 8.79688 18.893 8.59141C18.8773 8.55 18.8672 8.50937 18.8547 8.46797C18.793 8.25937 18.75 8.04141 18.75 7.8125C18.75 7.58203 18.793 7.36406 18.8555 7.15469C18.868 7.11328 18.8781 7.07266 18.8937 7.03281C18.9672 6.82656 19.0633 6.63125 19.1883 6.45625C19.1914 6.45156 19.1961 6.44844 19.1992 6.44375C19.3352 6.25938 19.4969 6.09297 19.6812 5.95391C19.6844 5.95234 19.6859 5.94922 19.6891 5.94766C19.8766 5.80703 20.0875 5.69297 20.3133 5.61172C20.5578 5.525 20.8172 5.46875 21.0938 5.46875C21.3687 5.46875 21.6297 5.525 21.875 5.6125C22.1008 5.69375 22.3102 5.80781 22.4992 5.94844C22.5008 5.95 22.5039 5.95312 22.507 5.95469C22.6898 6.09375 22.8516 6.26016 22.9875 6.44453C22.9906 6.44922 22.9953 6.45234 22.9984 6.45703C23.125 6.63281 23.2195 6.82812 23.2945 7.03359C23.3086 7.07344 23.3203 7.11484 23.3328 7.15547C23.3945 7.36406 23.4375 7.58203 23.4375 7.8125C23.4375 8.04141 23.3945 8.25938 23.332 8.46875ZM14.8438 14.0789V2.34375C14.8438 1.05156 13.7922 0 12.5 0C11.2078 0 10.1562 1.05156 10.1562 2.34375V14.0789C9.2125 14.793 8.59375 15.9133 8.59375 17.1875C8.59375 18.4617 9.2125 19.5812 10.1562 20.2945V22.6562C10.1562 23.9484 11.2078 25 12.5 25C13.7922 25 14.8438 23.9484 14.8438 22.6562V20.2945C15.7867 19.582 16.4062 18.4617 16.4062 17.1875C16.4062 15.9133 15.7867 14.7937 14.8438 14.0789ZM11.7188 2.34375C11.7188 1.91172 12.068 1.5625 12.5 1.5625C12.932 1.5625 13.2812 1.91172 13.2812 2.34375V13.3594C13.0281 13.3094 12.7672 13.2812 12.5 13.2812C12.232 13.2812 11.9711 13.3086 11.7188 13.3594V2.34375ZM13.2812 22.6562C13.2812 23.0883 12.932 23.4375 12.5 23.4375C12.068 23.4375 11.7188 23.0883 11.7188 22.6562V21.0141C11.9711 21.0664 12.232 21.0938 12.5 21.0938C12.7672 21.0938 13.0281 21.0664 13.2812 21.0141V22.6562ZM14.7383 17.8438C14.7258 17.8852 14.7141 17.9258 14.7 17.9672C14.625 18.1734 14.5305 18.3687 14.4039 18.5422C14.4008 18.5469 14.3961 18.55 14.393 18.5547C14.257 18.7406 14.0953 18.9055 13.9125 19.0445C13.9094 19.0477 13.9062 19.0492 13.9047 19.0508C13.7156 19.193 13.5063 19.307 13.2805 19.3867C13.0359 19.475 12.775 19.5312 12.5 19.5312C12.2242 19.5312 11.9641 19.475 11.7188 19.3859C11.493 19.3062 11.2828 19.1922 11.0945 19.05C11.0922 19.0484 11.0898 19.0469 11.0867 19.0437C10.9031 18.9047 10.7414 18.7398 10.6055 18.5539C10.6023 18.5492 10.5977 18.5461 10.5945 18.5414C10.4688 18.3672 10.3734 18.1719 10.2992 17.9664C10.2844 17.925 10.2734 17.8844 10.2609 17.843C10.1992 17.6344 10.1562 17.4164 10.1562 17.1875C10.1562 16.957 10.1992 16.7391 10.2617 16.5297C10.2742 16.4883 10.2852 16.4477 10.3 16.4078C10.3742 16.2016 10.4695 16.0063 10.5953 15.8313C10.5984 15.8266 10.6031 15.8234 10.6062 15.8187C10.7422 15.6344 10.9039 15.468 11.0875 15.3289C11.0906 15.3273 11.093 15.3242 11.0953 15.3227C11.2836 15.182 11.4938 15.068 11.7195 14.9867C11.9641 14.9 12.2242 14.8438 12.5 14.8438C12.775 14.8438 13.0359 14.9 13.2812 14.9875C13.507 15.0688 13.7164 15.1828 13.9055 15.3234C13.907 15.325 13.9102 15.3281 13.9133 15.3297C14.0961 15.4688 14.2578 15.6352 14.3938 15.8195C14.3969 15.8242 14.4016 15.8273 14.4047 15.832C14.5312 16.0078 14.6258 16.2031 14.7008 16.4086C14.7148 16.4484 14.7266 16.4898 14.7391 16.5305C14.8008 16.7391 14.8438 16.957 14.8438 17.1875C14.8438 17.4164 14.8008 17.6344 14.7383 17.8438Z" fill="white"/>
</svg>
