<svg width="22" height="22" viewBox="0 0 22 22" fill="none" xmlns="http://www.w3.org/2000/svg">
<path d="M16.1316 14.1876H15.1121L14.7508 13.8394C16.2994 12.0338 17.0995 9.57044 16.6607 6.95233C16.0542 3.36695 13.0603 0.503793 9.44701 0.0652922C3.98834 -0.605356 -0.605711 3.986 0.0653305 9.44147C0.504088 13.0527 3.36892 16.0448 6.95641 16.6509C9.57605 17.0894 12.0408 16.2898 13.8475 14.7422L14.1959 15.1033V16.1222L19.6804 21.6034C20.2095 22.1322 21.0741 22.1322 21.6032 21.6034C22.1323 21.0746 22.1323 20.2105 21.6032 19.6817L16.1316 14.1876ZM8.38883 14.1876C5.17557 14.1876 2.58174 11.5953 2.58174 8.38391C2.58174 5.17254 5.17557 2.58022 8.38883 2.58022C11.6021 2.58022 14.1959 5.17254 14.1959 8.38391C14.1959 11.5953 11.6021 14.1876 8.38883 14.1876Z" fill="white"/>
</svg>
