<svg width="25" height="19" viewBox="0 0 25 19" fill="none" xmlns="http://www.w3.org/2000/svg">
<path d="M22.6562 0H2.34375C1.05469 0 0 1.02764 0 2.28365V15.9856C0 17.2416 1.05469 18.2692 2.34375 18.2692H22.6562C23.9453 18.2692 25 17.2416 25 15.9856V2.28365C25 1.02764 23.9453 0 22.6562 0ZM2.34375 1.52244H22.6562C23.0797 1.52244 23.4375 1.87103 23.4375 2.28365V4.56731H1.5625V2.28365C1.5625 1.87103 1.92026 1.52244 2.34375 1.52244ZM22.6562 16.7468H2.34375C1.92026 16.7468 1.5625 16.3982 1.5625 15.9856V9.13461H23.4375V15.9856C23.4375 16.3982 23.0797 16.7468 22.6562 16.7468ZM3.125 12.1795H4.6875V15.2244H3.125V12.1795ZM6.25 12.1795H7.8125V15.2244H6.25V12.1795ZM9.375 12.1795H10.9375V15.2244H9.375V12.1795Z" fill="white"/>
</svg>
