<svg width="11" height="11" viewBox="0 0 11 11" fill="none" xmlns="http://www.w3.org/2000/svg">
<path d="M5.8004 0.229248C2.994 0.229248 0.712769 2.51048 0.712769 5.31688C0.712769 8.12328 2.994 10.4045 5.8004 10.4045C8.6068 10.4045 10.888 8.12328 10.888 5.31688C10.888 2.51048 8.6068 0.229248 5.8004 0.229248ZM7.33216 2.05095L5.9481 1.34524V0.978716C6.94922 1.01154 7.90657 1.39448 8.66151 2.05095H7.33216ZM8.97333 2.35183C9.42738 2.83871 9.75562 3.41312 9.95256 4.04771L9.17574 5.40441L8.03239 5.22935L6.99298 3.435L7.40874 2.34636C7.41422 2.35183 8.97333 2.35183 8.97333 2.35183ZM6.65928 3.63741L7.66039 5.37705L6.77963 6.89787H4.82117L3.9404 5.37158L4.94152 3.63194H6.65928V3.63741ZM5.65269 1.34524L4.26864 2.05095H2.93382C3.68876 1.38901 4.64611 1.01154 5.64722 0.978716V1.34524H5.65269ZM4.18658 2.35183L4.60234 3.44047L3.56841 5.22935L2.43053 5.40441L1.64277 4.03676C1.83971 3.40765 2.17341 2.83324 2.63294 2.35183H4.18658ZM2.26094 5.70529L2.33206 7.13858L1.96553 7.3574C1.62635 6.72828 1.4513 6.02805 1.4513 5.31141C1.4513 5.02694 1.47865 4.73153 1.5443 4.45253L2.26094 5.70529ZM2.46335 7.4121L3.71611 8.21081L4.4054 9.43075C3.45899 9.11345 2.64388 8.46792 2.11323 7.61452L2.46335 7.4121ZM4.06076 8.22722L4.82117 7.29175H6.77416L7.53457 8.22722L6.77416 9.54016C6.4514 9.61674 6.12863 9.65504 5.79493 9.66051C5.46122 9.66051 5.13846 9.62222 4.8157 9.54016L4.06076 8.22722ZM7.19539 9.4198L7.88468 8.21628L9.13744 7.41757L9.48209 7.61999C8.95145 8.46245 8.1418 9.10251 7.19539 9.4198ZM9.26327 7.13858L9.33438 5.70529L10.0565 4.458C10.1112 4.737 10.144 5.02147 10.1495 5.31141C10.1495 6.02805 9.97444 6.72828 9.63527 7.3574L9.26327 7.13858Z" fill="#22B14C"/>
</svg>
